<svg enable-background="new 0 0 55 55" viewBox="0 0 55 55" xmlns="http://www.w3.org/2000/svg"><path d="m27.5 0c-15.164 0-27.5 12.337-27.5 27.5 0 7.976 3.417 15.167 8.86 20.195l-.072.098.705.604c3.904 3.342 8.655 5.483 13.681 6.26.356.056.715.102 1.075.144.391.045.782.085 1.176.112.579.043 1.162.071 1.75.078.062 0 .123.008.185.008.017 0 .035-.002.052-.002.03 0 .059.002.089.002 15.163.001 27.499-12.336 27.499-27.499s-12.336-27.5-27.5-27.5zm-.086 52.998c-.09 0-.178-.006-.267-.007-.478-.004-.954-.029-1.429-.06-5.298-.368-10.154-2.359-14.074-5.482.381-.36.802-.665 1.266-.9l9.137-3.921c.739-.368 1.191-1.186 1.628-2.063.274-.552.243-1.195-.083-1.721-.327-.529-.893-.844-1.513-.844l-6.347.005c-.022-.002-2.195-.222-3.83-.924-.308-.132-.437-.235-.474-.241.015-.042.051-.124.141-.251 2.264-3.224 6.083-9.643 6.214-16.409.008-.379.303-9.287 9.332-9.361 5.365.044 7.902 3.189 9.086 5.82.591 1.313.939 2.879 1.065 4.785.39 5.9 3.1 11.466 5.305 15.095.114.188.148.418.096.631-.049.197-.168.361-.335.461-1.038.62-2.389.407-2.397.404l-6.662-.015c-.713 0-1.33.45-1.571 1.146-.243.702-.028 1.472.536 1.917.71.561.992.734 1.104.794l7.619 4.609c.654.357 1.229.845 1.692 1.434-4.422 3.329-9.67 5.086-15.239 5.098zm16.836-6.296c-.633-.815-1.415-1.491-2.293-1.969l-7.619-4.609c-.016-.009-.07-.04-.19-.124h5.54c.436.061 2.175.222 3.669-.673.627-.374 1.072-.977 1.25-1.695.181-.727.062-1.511-.327-2.151-2.088-3.438-4.655-8.691-5.018-14.189-.143-2.147-.547-3.938-1.237-5.473-1.424-3.164-4.469-6.947-10.91-7-10.964.09-11.33 11.206-11.332 11.32-.125 6.47-4.134 12.855-5.851 15.3-.467.665-.616 1.312-.444 1.921.188.66.719 1.171 1.625 1.56 1.917.823 4.322 1.066 4.521 1.081h6.084c-.167.324-.395.735-.512.813l-9.113 3.908-.053.024c-.713.356-1.349.83-1.914 1.395-4.994-4.658-8.126-11.289-8.126-18.641 0-14.061 11.439-25.5 25.5-25.5s25.5 11.439 25.5 25.5c0 7.653-3.394 14.524-8.75 19.202z"/></svg>